{
  "accessors": [
    {
      "bufferView": 2,
      "componentType": 5126,
      "count": 642,
      "max": [
        14.87230110168457,
        14.936012268066406,
        15
      ],
      "min": [
        -14.872298240661621,
        -14.936012268066406,
        -15
      ],
      "type": "VEC3"
    },
    {
      "bufferView": 2,
      "byteOffset": 7704,
      "componentType": 5126,
      "count": 642,
      "max": [
        0.99601733684539795,
        0.99669510126113892,
        1
      ],
      "min": [
        -0.99601715803146362,
        -0.99669498205184937,
        -1
      ],
      "type": "VEC3"
    },
    {
      "bufferView": 3,
      "componentType": 5126,
      "count": 642,
      "max": [
        0.75924444198608398,
        0.93740516901016235,
        0.98914045095443726,
        1
      ],
      "min": [
        -0.75924509763717651,
        -0.93740600347518921,
        -0.81205505132675171,
        1
      ],
      "type": "VEC4"
    },
    {
      "bufferView": 1,
      "componentType": 5126,
      "count": 642,
      "max": [
        0.99460458755493164,
        0.99799996614456177
      ],
      "min": [
        0.0020000000949949026,
        0.0020000000949949026
      ],
      "type": "VEC2"
    },
    {
      "bufferView": 0,
      "componentType": 5125,
      "count": 1632,
      "max": [
        641
      ],
      "min": [
        0
      ],
      "type": "SCALAR"
    },
    {
      "bufferView": 2,
      "byteOffset": 15408,
      "componentType": 5126,
      "count": 658,
      "max": [
        14.936347961425781,
        14.936012268066406,
        15
      ],
      "min": [
        -14.936345100402832,
        -14.936012268066406,
        -15
      ],
      "type": "VEC3"
    },
    {
      "bufferView": 2,
      "byteOffset": 23304,
      "componentType": 5126,
      "count": 658,
      "max": [
        0.99812418222427368,
        0.99999785423278809,
        1
      ],
      "min": [
        -0.99812400341033936,
        -0.99999779462814331,
        -1
      ],
      "type": "VEC3"
    },
    {
      "bufferView": 3,
      "byteOffset": 10272,
      "componentType": 5126,
      "count": 658,
      "max": [
        0.96793746948242188,
        0.74195778369903564,
        0.99065512418746948,
        1
      ],
      "min": [
        -0.96793633699417114,
        -0.74196422100067139,
        -0.9780924916267395,
        1
      ],
      "type": "VEC4"
    },
    {
      "bufferView": 1,
      "byteOffset": 5136,
      "componentType": 5126,
      "count": 658,
      "max": [
        0.99799996614456177,
        0.99789923429489136
      ],
      "min": [
        0.0020000000949949026,
        0.0020000000949949026
      ],
      "type": "VEC2"
    },
    {
      "bufferView": 0,
      "byteOffset": 6528,
      "componentType": 5125,
      "count": 1632,
      "max": [
        657
      ],
      "min": [
        0
      ],
      "type": "SCALAR"
    },
    {
      "bufferView": 2,
      "byteOffset": 31200,
      "componentType": 5126,
      "count": 324,
      "max": [
        15,
        15,
        15
      ],
      "min": [
        -15,
        -15,
        -15
      ],
      "type": "VEC3"
    },
    {
      "bufferView": 2,
      "byteOffset": 35088,
      "componentType": 5126,
      "count": 324,
      "max": [
        1,
        1,
        1
      ],
      "min": [
        -1,
        -1,
        -1
      ],
      "type": "VEC3"
    },
    {
      "bufferView": 3,
      "byteOffset": 20800,
      "componentType": 5126,
      "count": 324,
      "max": [
        1,
        0.99999994039535522,
        0.99999415874481201,
        1
      ],
      "min": [
        -0.99998956918716431,
        -0.99999994039535522,
        -0.590384840965271,
        1
      ],
      "type": "VEC4"
    },
    {
      "bufferView": 1,
      "byteOffset": 10400,
      "componentType": 5126,
      "count": 324,
      "max": [
        0.99799996614456177,
        0.9969789981842041
      ],
      "min": [
        0.0020000000949949026,
        0.0020000000949949026
      ],
      "type": "VEC2"
    },
    {
      "bufferView": 0,
      "byteOffset": 13056,
      "componentType": 5125,
      "count": 1080,
      "max": [
        323
      ],
      "min": [
        0
      ],
      "type": "SCALAR"
    },
    {
      "bufferView": 4,
      "componentType": 5126,
      "count": 2,
      "max": [
        3.3333332538604736
      ],
      "min": [
        0
      ],
      "type": "SCALAR"
    },
    {
      "bufferView": 5,
      "componentType": 5126,
      "count": 2,
      "max": [
        0,
        0,
        0
      ],
      "min": [
        0,
        0,
        0
      ],
      "type": "VEC3"
    },
    {
      "bufferView": 4,
      "byteOffset": 8,
      "componentType": 5126,
      "count": 2,
      "max": [
        3.3333332538604736
      ],
      "min": [
        0
      ],
      "type": "SCALAR"
    },
    {
      "bufferView": 5,
      "byteOffset": 24,
      "componentType": 5126,
      "count": 2,
      "max": [
        0.62500005960464478,
        0.62500005960464478,
        0.62500005960464478
      ],
      "min": [
        0.62500005960464478,
        0.62500005960464478,
        0.62500005960464478
      ],
      "type": "VEC3"
    },
    {
      "bufferView": 4,
      "byteOffset": 16,
      "componentType": 5126,
      "count": 101,
      "max": [
        3.3333332538604736
      ],
      "min": [
        0
      ],
      "type": "SCALAR"
    },
    {
      "bufferView": 6,
      "componentType": 5126,
      "count": 101,
      "max": [
        1.4264683659000015e-14,
        1.4210854715202004e-14,
        1,
        1
      ],
      "min": [
        -6.9473777859069274e-15,
        -1.211622524587095e-14,
        -0.85013538599014282,
        -0.48811560869216919
      ],
      "type": "VEC4"
    },
    {
      "bufferView": 4,
      "byteOffset": 420,
      "componentType": 5126,
      "count": 58,
      "max": [
        3.3333332538604736
      ],
      "min": [
        0
      ],
      "type": "SCALAR"
    },
    {
      "bufferView": 5,
      "byteOffset": 48,
      "componentType": 5126,
      "count": 58,
      "max": [
        2.7755575615628914e-17,
        5.5511151231257827e-17,
        0
      ],
      "min": [
        -5.5511151231257827e-17,
        -5.5511151231257827e-17,
        -2.7755575615628914e-17
      ],
      "type": "VEC3"
    },
    {
      "bufferView": 4,
      "byteOffset": 652,
      "componentType": 5126,
      "count": 2,
      "max": [
        3.3333332538604736
      ],
      "min": [
        0
      ],
      "type": "SCALAR"
    },
    {
      "bufferView": 5,
      "byteOffset": 744,
      "componentType": 5126,
      "count": 2,
      "max": [
        0.79999995231628418,
        0.79999995231628418,
        0.79999995231628418
      ],
      "min": [
        0.79999995231628418,
        0.79999995231628418,
        0.79999995231628418
      ],
      "type": "VEC3"
    },
    {
      "bufferView": 4,
      "byteOffset": 660,
      "componentType": 5126,
      "count": 101,
      "max": [
        3.3333332538604736
      ],
      "min": [
        0
      ],
      "type": "SCALAR"
    },
    {
      "bufferView": 6,
      "byteOffset": 1616,
      "componentType": 5126,
      "count": 101,
      "max": [
        0.49901339411735535,
        1,
        0.5,
        1
      ],
      "min": [
        -0.50000005960464478,
        -0.49999979138374329,
        -0.49901336431503296,
        -0.49999973177909851
      ],
      "type": "VEC4"
    },
    {
      "bufferView": 4,
      "byteOffset": 1064,
      "componentType": 5126,
      "count": 2,
      "max": [
        3.3333332538604736
      ],
      "min": [
        0
      ],
      "type": "SCALAR"
    },
    {
      "bufferView": 5,
      "byteOffset": 768,
      "componentType": 5126,
      "count": 2,
      "max": [
        -0.423309326171875,
        0,
        0.0003204345703125
      ],
      "min": [
        -0.423309326171875,
        0,
        0.0003204345703125
      ],
      "type": "VEC3"
    },
    {
      "bufferView": 4,
      "byteOffset": 1072,
      "componentType": 5126,
      "count": 2,
      "max": [
        3.3333332538604736
      ],
      "min": [
        0
      ],
      "type": "SCALAR"
    },
    {
      "bufferView": 5,
      "byteOffset": 792,
      "componentType": 5126,
      "count": 2,
      "max": [
        1,
        1,
        1
      ],
      "min": [
        1,
        1,
        1
      ],
      "type": "VEC3"
    },
    {
      "bufferView": 4,
      "byteOffset": 1080,
      "componentType": 5126,
      "count": 101,
      "max": [
        3.3333332538604736
      ],
      "min": [
        0
      ],
      "type": "SCALAR"
    },
    {
      "bufferView": 6,
      "byteOffset": 3232,
      "componentType": 5126,
      "count": 101,
      "max": [
        0.70710676908493042,
        0.70710676908493042,
        9.415696666792428e-08,
        0.70710676908493042
      ],
      "min": [
        -0.70710676908493042,
        -0.70710676908493042,
        -9.415696666792428e-08,
        -0.48404794931411743
      ],
      "type": "VEC4"
    }
  ],
  "animations": [
    {
      "channels": [
        {
          "sampler": 0,
          "target": {
            "node": 9,
            "path": "translation"
          }
        },
        {
          "sampler": 1,
          "target": {
            "node": 9,
            "path": "scale"
          }
        },
        {
          "sampler": 2,
          "target": {
            "node": 9,
            "path": "rotation"
          }
        },
        {
          "sampler": 3,
          "target": {
            "node": 7,
            "path": "translation"
          }
        },
        {
          "sampler": 4,
          "target": {
            "node": 7,
            "path": "scale"
          }
        },
        {
          "sampler": 5,
          "target": {
            "node": 7,
            "path": "rotation"
          }
        },
        {
          "sampler": 6,
          "target": {
            "node": 5,
            "path": "translation"
          }
        },
        {
          "sampler": 7,
          "target": {
            "node": 5,
            "path": "scale"
          }
        },
        {
          "sampler": 8,
          "target": {
            "node": 5,
            "path": "rotation"
          }
        }
      ],
      "name": "Take 001",
      "samplers": [
        {
          "input": 15,
          "interpolation": "LINEAR",
          "output": 16
        },
        {
          "input": 17,
          "interpolation": "LINEAR",
          "output": 18
        },
        {
          "input": 19,
          "interpolation": "LINEAR",
          "output": 20
        },
        {
          "input": 21,
          "interpolation": "LINEAR",
          "output": 22
        },
        {
          "input": 23,
          "interpolation": "LINEAR",
          "output": 24
        },
        {
          "input": 25,
          "interpolation": "LINEAR",
          "output": 26
        },
        {
          "input": 27,
          "interpolation": "LINEAR",
          "output": 28
        },
        {
          "input": 29,
          "interpolation": "LINEAR",
          "output": 30
        },
        {
          "input": 31,
          "interpolation": "LINEAR",
          "output": 32
        }
      ]
    }
  ],
  "asset": {
    "extras": {
      "author": "deecube1 (https://sketchfab.com/deecube1)",
      "license": "CC-BY-4.0 (http://creativecommons.org/licenses/by/4.0/)",
      "source": "https://sketchfab.com/models/a525fc48c1d245e2883241e344773aa4",
      "title": "Abstract sphere"
    },
    "generator": "Sketchfab-3.19.6",
    "version": "2.0"
  },
  "bufferViews": [
    {
      "buffer": 0,
      "byteLength": 17376,
      "byteOffset": 0,
      "name": "floatBufferViews",
      "target": 34963
    },
    {
      "buffer": 0,
      "byteLength": 12992,
      "byteOffset": 17376,
      "byteStride": 8,
      "name": "floatBufferViews",
      "target": 34962
    },
    {
      "buffer": 0,
      "byteLength": 38976,
      "byteOffset": 30368,
      "byteStride": 12,
      "name": "floatBufferViews",
      "target": 34962
    },
    {
      "buffer": 0,
      "byteLength": 25984,
      "byteOffset": 69344,
      "byteStride": 16,
      "name": "floatBufferViews",
      "target": 34962
    },
    {
      "buffer": 0,
      "byteLength": 1484,
      "byteOffset": 95328,
      "name": "floatBufferViews"
    },
    {
      "buffer": 0,
      "byteLength": 816,
      "byteOffset": 96812,
      "byteStride": 12,
      "name": "floatBufferViews"
    },
    {
      "buffer": 0,
      "byteLength": 4848,
      "byteOffset": 97628,
      "byteStride": 16,
      "name": "floatBufferViews"
    }
  ],
  "buffers": [
    {
      "byteLength": 102476,
      "uri": "scene.bin"
    }
  ],
  "extensionsRequired": [
    "KHR_materials_pbrSpecularGlossiness"
  ],
  "extensionsUsed": [
    "KHR_materials_pbrSpecularGlossiness"
  ],
  "images": [
    {
      "uri": "textures/RootNode_diffuse.jpg"
    },
    {
      "uri": "textures/RootNode_normal.jpg"
    },
    {
      "uri": "textures/RootNode_specularGlossiness.png"
    },
    {
      "uri": "textures/RootNode_occlusion.jpg"
    }
  ],
  "materials": [
    {
      "doubleSided": true,
      "extensions": {
        "KHR_materials_pbrSpecularGlossiness": {
          "diffuseFactor": [
            1,
            1,
            1,
            1
          ],
          "diffuseTexture": {
            "index": 0,
            "texCoord": 0
          },
          "glossinessFactor": 1,
          "specularFactor": [
            1,
            1,
            1
          ],
          "specularGlossinessTexture": {
            "index": 2,
            "texCoord": 0
          }
        }
      },
      "name": "RootNode",
      "normalTexture": {
        "index": 1,
        "scale": 1,
        "texCoord": 0
      },
      "occlusionTexture": {
        "index": 3,
        "strength": 1,
        "texCoord": 0
      }
    }
  ],
  "meshes": [
    {
      "name": "S1__0",
      "primitives": [
        {
          "attributes": {
            "NORMAL": 1,
            "POSITION": 0,
            "TANGENT": 2,
            "TEXCOORD_0": 3
          },
          "indices": 4,
          "material": 0,
          "mode": 4
        }
      ]
    },
    {
      "name": "S2__0",
      "primitives": [
        {
          "attributes": {
            "NORMAL": 6,
            "POSITION": 5,
            "TANGENT": 7,
            "TEXCOORD_0": 8
          },
          "indices": 9,
          "material": 0,
          "mode": 4
        }
      ]
    },
    {
      "name": "S3__0",
      "primitives": [
        {
          "attributes": {
            "NORMAL": 11,
            "POSITION": 10,
            "TANGENT": 12,
            "TEXCOORD_0": 13
          },
          "indices": 14,
          "material": 0,
          "mode": 4
        }
      ]
    }
  ],
  "nodes": [
    {
      "children": [
        1
      ],
      "name": "RootNode (gltf orientation matrix)",
      "rotation": [
        -0.70710678118654746,
        -0,
        -0,
        0.70710678118654757
      ]
    },
    {
      "children": [
        2
      ],
      "name": "RootNode (model correction matrix)"
    },
    {
      "children": [
        3
      ],
      "matrix": [
        1,
        0,
        0,
        0,
        0,
        0,
        1,
        0,
        0,
        -1,
        0,
        0,
        0,
        0,
        0,
        1
      ],
      "name": "65feb8d5067b4128bde007edea05f073.fbx"
    },
    {
      "children": [
        4
      ],
      "name": ""
    },
    {
      "children": [
        5
      ],
      "name": "RootNode"
    },
    {
      "children": [
        6,
        7
      ],
      "name": "S1",
      "rotation": [
        -0.70710688829421997,
        1.0677013762006027e-07,
        1.0677017314719706e-07,
        0.70710664987564087
      ],
      "translation": [
        -0.423309326171875,
        0,
        0.0003204345703125
      ]
    },
    {
      "mesh": 0,
      "name": "S1__0"
    },
    {
      "children": [
        8,
        9
      ],
      "name": "S2",
      "rotation": [
        1.5099577410637721e-07,
        9.599268537170691e-15,
        -2.384185791015625e-07,
        1
      ],
      "scale": [
        0.79999995231628418,
        0.79999995231628418,
        0.79999995231628418
      ],
      "translation": [
        0,
        0,
        -1.3877787807814457e-17
      ]
    },
    {
      "mesh": 1,
      "name": "S2__0"
    },
    {
      "children": [
        10
      ],
      "name": "S3",
      "rotation": [
        1.4210854715202004e-14,
        2.710505067706656e-21,
        -5.6843415472676226e-15,
        1
      ],
      "scale": [
        0.62500005960464478,
        0.62500005960464478,
        0.62500005960464478
      ]
    },
    {
      "mesh": 2,
      "name": "S3__0"
    }
  ],
  "samplers": [
    {
      "magFilter": 9729,
      "minFilter": 9987,
      "wrapS": 10497,
      "wrapT": 10497
    }
  ],
  "scene": 0,
  "scenes": [
    {
      "name": "OSG_Scene",
      "nodes": [
        0
      ]
    }
  ],
  "textures": [
    {
      "sampler": 0,
      "source": 0
    },
    {
      "sampler": 0,
      "source": 1
    },
    {
      "sampler": 0,
      "source": 2
    },
    {
      "sampler": 0,
      "source": 3
    }
  ]
}

